<svg width="30" height="30" viewBox="0 0 48 48" fill="none" xmlns="http://www.w3.org/2000/svg">
<path d="M10.7251 17.1286C12.3858 16.0214 17.3572 13.8107 23.993 13.8107C30.6251 13.8107 35.6001 16.0214 37.2572 17.1286M15.5358 24.225C16.9465 23.5179 20.6072 22.1107 23.993 22.1107C27.3715 22.1107 31.0358 23.5179 32.4465 24.225M21.2215 31.4286C21.6858 31.1929 22.8858 30.7321 23.993 30.7321C25.1001 30.7321 26.3001 31.1964 26.7608 31.425" stroke="black" stroke-linecap="round" stroke-linejoin="round"/>
<path d="M25.3465 46.9643C24.6715 47.3 23.6643 47.3 22.6536 46.9643C9.53577 41.9036 0.785767 29.0929 0.785767 14.9393V4.49286C0.785767 2.47143 2.46791 0.785713 4.48577 0.785713H43.5143C45.5322 0.785713 47.2143 2.47143 47.2143 4.49286V14.9429C47.2143 29.4357 38.4643 41.9071 25.3465 46.9607V46.9643Z" stroke="black" stroke-miterlimit="10" stroke-linecap="round" stroke-linejoin="round"/>
</svg>
